PathFileType	4	(X/Y/Z)	./resultDataOpenSim/trcMotMarkerGrf/sub06/qtm-02-03.trc
DataRate	CameraRate	NumFrames	NumMarkers	Units	OrigDataRate	OrigDataStartFrame	OrigNumFrames
250.000000	250.000000	11	24	m	250.000000	323	516
Frame#	Time	L.Toe.Tip			R.Toe.Tip			L.Ankle.Lat			R.Ankle.Lat			L.Ankle.Med			R.Ankle.Med			L.Heel			R.Heel			L.Knee.Lat			R.Knee.Lat			L.Knee.Med			R.Knee.Med			L.Thigh.Upper			R.Thigh.Upper			L.ASIS			R.ASIS			V.Sacral			L.Acromium			R.Acromium			C7			L.Elbow			R.Elbow			L.Wrist.Lat			R.Wrist.Lat
		X1	Y1	Z1	X2	Y2	Z2	X3	Y3	Z3	X4	Y4	Z4	X5	Y5	Z5	X6	Y6	Z6	X7	Y7	Z7	X8	Y8	Z8	X9	Y9	Z9	X10	Y10	Z10	X11	Y11	Z11	X12	Y12	Z12	X13	Y13	Z13	X14	Y14	Z14	X15	Y15	Z15	X16	Y16	Z16	X17	Y17	Z17	X18	Y18	Z18	X19	Y19	Z19	X20	Y20	Z20	X21	Y21	Z21	X22	Y22	Z22	X23	Y23	Z23	X24	Y24	Z24

323	1.288	0.44757954	0.089452808	-0.060981694	0.84888375	0.035471514	0.1021778	0.42365469	0.21756319	-0.084527246	0.71247002	0.060155998	0.13478452	0.44657368	0.22411804	-0.0024421198	0.72926659	0.084508105	0.047680567	0.36945905	0.26531301	-0.032017328	0.65543986	0.040564123	0.079367908	0.74415744	0.40987851	-0.11776393	0.78551878	0.44479103	0.16546149	0.75332917	0.3971487	0.0042317927	0.74547645	0.4363697	0.043105305	0.65933315	0.79872272	-0.11146738	0.69856247	0.80977041	0.22955071	0.7402985	0.84958249	-0.07968908	0.77838572	0.86428185	0.16385135	0.57462578	0.93129378	0.073572042	0.68747412	1.3492767	-0.12060309	0.70115118	1.3174237	0.23952742	0.61888463	1.3701426	0.063061729	0.67478752	1.0289894	-0.19588214	0.61542838	1.0095489	0.29146444	0.85880911	0.86699434	-0.17769204	0.75012493	0.81468691	0.34966792
324	1.292	0.46535618	0.089601337	-0.061754957	0.84885452	0.035489357	0.10218583	0.43836623	0.21714068	-0.084736278	0.71250659	0.060199639	0.13489366	0.46138578	0.22385465	-0.0025966526	0.72925926	0.084821967	0.047917923	0.38313705	0.263666	-0.032154337	0.65539694	0.040821372	0.079521005	0.7565721	0.41309231	-0.11788375	0.78650984	0.44496305	0.16578379	0.76563145	0.40040241	0.0043656797	0.74672189	0.43671386	0.043349373	0.66631181	0.8008145	-0.1114364	0.70358466	0.81077429	0.22986786	0.74676589	0.85163496	-0.07922182	0.78391282	0.86591409	0.16465496	0.58060865	0.932833	0.073628426	0.69311805	1.3511275	-0.12049743	0.70733597	1.319575	0.23948752	0.62480794	1.3717763	0.063219271	0.67858483	1.0312731	-0.19581177	0.62415494	1.0108677	0.2922099	0.86076861	0.86708691	-0.17830056	0.76302753	0.81831646	0.34873513
325	1.296	0.48329549	0.089632138	-0.062578377	0.84882424	0.035508765	0.10219675	0.4531954	0.21648486	-0.08489223	0.71252926	0.060265978	0.13501943	0.47625329	0.22335136	-0.0027180049	0.72924716	0.085130222	0.048142961	0.39693388	0.26167073	-0.032242635	0.65535869	0.041098137	0.079671304	0.76890612	0.41634601	-0.11799705	0.78745657	0.44513884	0.16610371	0.77790698	0.40369511	0.0044712764	0.74809379	0.43693684	0.04356461	0.67313516	0.80288048	-0.11152444	0.70884358	0.81179543	0.23009151	0.7532068	0.85366833	-0.078768456	0.78946592	0.867512	0.16542542	0.58658999	0.93429504	0.073650456	0.69880259	1.3529122	-0.12039702	0.71351635	1.3216821	0.23944712	0.6307196	1.3733566	0.0633733	0.6823493	1.0335086	-0.19582154	0.63295971	1.0122142	0.29297795	0.86274615	0.86721912	-0.17895112	0.77585775	0.82202727	0.3477568
326	1.3	0.50141318	0.089539289	-0.063459125	0.84879287	0.035529561	0.10221458	0.46813714	0.21559955	-0.085019168	0.71254327	0.060368168	0.13515984	0.49114111	0.22260948	-0.0028191803	0.72924203	0.085430872	0.048349605	0.41084697	0.25934436	-0.032280523	0.65532815	0.04138774	0.079821155	0.78115997	0.4196126	-0.11808049	0.78835048	0.44530673	0.16640701	0.79016052	0.40699534	0.0045310532	0.74910178	0.43715138	0.043665319	0.67987216	0.8049528	-0.11177033	0.71429371	0.81284614	0.2302334	0.75976866	0.85568834	-0.078229393	0.7950415	0.86907108	0.16616946	0.59250442	0.93569384	0.073647918	0.70449344	1.354625	-0.1202727	0.71969232	1.3237379	0.23940941	0.63661698	1.3748859	0.063528658	0.68606937	1.0356881	-0.19588003	0.6417602	1.0135611	0.29375065	0.86469057	0.86737159	-0.17970207	0.78863612	0.82583755	0.34675271
327	1.304	0.51972611	0.089298533	-0.064378245	0.84876314	0.035549838	0.10223937	0.48319617	0.21447851	-0.085159427	0.7125584	0.060501457	0.13530556	0.50602259	0.22162933	-0.0028979087	0.72925679	0.085730089	0.048537339	0.42487816	0.2567108	-0.032293113	0.65531775	0.041681401	0.079955322	0.79333892	0.42286873	-0.11811011	0.78919496	0.44546357	0.16668338	0.80235826	0.41031374	0.0045692819	0.74945959	0.43745591	0.043622745	0.68669647	0.80704843	-0.11204313	0.71965766	0.81390457	0.23033253	0.76642695	0.85769293	-0.077622929	0.80062871	0.87058412	0.16688997	0.59834653	0.93704009	0.073617165	0.71018043	1.3562621	-0.12011861	0.72586245	1.3257317	0.23937465	0.64250397	1.3763592	0.063688542	0.68973934	1.0378089	-0.19596427	0.65037937	1.0148707	0.29448179	0.86656204	0.86752248	-0.18055141	0.80138023	0.82976136	0.34573357
328	1.308	0.53822863	0.088898363	-0.065312949	0.84873924	0.035566754	0.10227009	0.49838326	0.21311754	-0.085332676	0.71258055	0.060658899	0.13544807	0.52097468	0.22040396	-0.0029822012	0.72930297	0.086038062	0.048711344	0.43903708	0.25379128	-0.032309098	0.6553458	0.041974575	0.080045596	0.80539514	0.42612097	-0.1181228	0.78999607	0.44561145	0.16692585	0.81448996	0.41368143	0.0046376438	0.74955696	0.43780636	0.043489323	0.69379667	0.80915075	-0.11217101	0.72468482	0.81493763	0.23043681	0.77310234	0.85967971	-0.077004624	0.80622118	0.87204033	0.16758523	0.60412876	0.93834253	0.073559542	0.71588072	1.3578218	-0.1199509	0.73202664	1.327656	0.23934209	0.64839569	1.3777528	0.063842993	0.69336124	1.0398685	-0.19606512	0.65871857	1.0161206	0.29514518	0.86838802	0.86765215	-0.18142555	0.81408634	0.83378697	0.34469862
329	1.312	0.55687058	0.088360429	-0.066254059	0.84872337	0.035578817	0.10230716	0.51370712	0.21152098	-0.085530998	0.71261115	0.060835205	0.13557896	0.53621376	0.21892639	-0.0031604017	0.72938139	0.086363634	0.048884501	0.4533438	0.25060469	-0.032355868	0.65542094	0.042272847	0.080071135	0.81726452	0.42938008	-0.11815701	0.79076168	0.4457536	0.16713868	0.82654458	0.41710739	0.0047787378	0.74994894	0.43811393	0.043325844	0.70118799	0.81121829	-0.11213209	0.72946271	0.81592807	0.23056305	0.77977967	0.86164476	-0.076386114	0.81181912	0.87342704	0.16824997	0.60985507	0.93960823	0.073484039	0.72160941	1.3593	-0.11978453	0.73818999	1.3295108	0.23931385	0.65430364	1.3790513	0.063977318	0.69694294	1.0418617	-0.19618469	0.66683994	1.0173114	0.29576148	0.87024585	0.86776632	-0.18223638	0.82672849	0.83787508	0.34364558
330	1.316	0.5756049	0.087717623	-0.067208307	0.84871652	0.035587044	0.10235087	0.52916831	0.20969664	-0.085746626	0.71264927	0.061024704	0.13568812	0.55189917	0.2172045	-0.0034967178	0.72948078	0.086707452	0.049069321	0.4678158	0.24716505	-0.0324473	0.65551774	0.042590219	0.080045174	0.8289763	0.432624	-0.11815856	0.79149019	0.4458932	0.16733545	0.83846361	0.42055704	0.0049810055	0.75073845	0.43839096	0.043160146	0.70870315	0.81321785	-0.11205374	0.73430174	0.8168709	0.23068012	0.78650112	0.86358046	-0.075739619	0.81742187	0.87473209	0.16888042	0.6155468	0.94083445	0.07339308	0.72736669	1.360689	-0.11962423	0.74435824	1.3312998	0.23929339	0.66022296	1.380272	0.06409006	0.70049634	1.043781	-0.19632739	0.67486857	1.0184511	0.29637219	0.87218185	0.86788011	-0.18295062	0.83927684	0.84198165	0.34257653
331	1.32	0.59438228	0.086977952	-0.068163598	0.84872041	0.035594362	0.10239951	0.54475934	0.20765431	-0.085983055	0.71269358	0.061221948	0.1357669	0.56792351	0.21526302	-0.0039386048	0.7295982	0.087058845	0.049253675	0.48244554	0.24347314	-0.032560923	0.65557641	0.042940537	0.080009768	0.84066431	0.43581443	-0.1180209	0.79216502	0.44603525	0.16752498	0.85018466	0.42398435	0.0052067418	0.7516778	0.4387249	0.043027817	0.71619612	0.81514234	-0.11204002	0.73942362	0.81776677	0.23073148	0.79329479	0.86547877	-0.075047608	0.82302496	0.87594648	0.16947789	0.62126023	0.94200507	0.073277132	0.73314576	1.3619844	-0.11946999	0.75053234	1.333023	0.23928353	0.66614301	1.3814426	0.064191898	0.70403548	1.0456182	-0.196493	0.68289182	1.0195473	0.29701227	0.87416871	0.86798109	-0.18361108	0.85171944	0.84608562	0.341495
332	1.324	0.61311906	0.086117129	-0.069062037	0.84873173	0.035602058	0.10245394	0.56047684	0.20541005	-0.08624681	0.7127412	0.061423106	0.13581195	0.58401212	0.21313527	-0.0043664656	0.72975278	0.087402776	0.049398798	0.49721456	0.23951944	-0.032656526	0.6555491	0.043329659	0.079990412	0.85242076	0.4389395	-0.11769247	0.79278491	0.44618342	0.16769973	0.86173046	0.42738268	0.0054724109	0.75257521	0.43915151	0.04297784	0.7236465	0.81699933	-0.11209687	0.74486594	0.81860979	0.23066017	0.8001439	0.86733339	-0.074322854	0.82862278	0.87706389	0.17004559	0.6270451	0.94310316	0.073128296	0.73894153	1.3631875	-0.11932291	0.75670702	1.3346725	0.23928538	0.67205771	1.3825702	0.064293283	0.70757032	1.0473688	-0.19667793	0.69096387	1.0206093	0.29770639	0.87613286	0.86803948	-0.1843097	0.8640617	0.85019353	0.34040024
333	1.328	0.63179968	0.085117376	-0.06986857	0.84874155	0.035607029	0.10251809	0.57632608	0.202985	-0.086544536	0.7127858	0.061625977	0.13582459	0.5999758	0.21085039	-0.0047077452	0.72996133	0.087728747	0.049480598	0.51212203	0.23530993	-0.032723721	0.65545306	0.043750429	0.07996655	0.86417531	0.44202264	-0.11722266	0.79341141	0.44633379	0.16783873	0.8731686	0.43077091	0.0058267164	0.75340798	0.43963132	0.043011885	0.73107548	0.81879722	-0.11220166	0.75047256	0.81935881	0.23046135	0.80700537	0.86914124	-0.073590383	0.8342104	0.87807769	0.17058409	0.63291049	0.9441223	0.072950504	0.74475474	1.3642996	-0.11918505	0.76287206	1.3362362	0.23929681	0.6779644	1.3836403	0.064399042	0.71109873	1.0490337	-0.19687593	0.69914795	1.0216466	0.29846845	0.87799749	0.8680386	-0.18514126	0.87631106	0.85432024	0.33928635
